<svg xmlns="http://www.w3.org/2000/svg" xmlns:xlink="http://www.w3.org/1999/xlink" xml:space="preserve" id="Layer_1" width="542.8" height="737" x="0" y="0" style="enable-background:new 0 0 542.8 737" version="1.1"><style>.st0{clip-path:url(#SVGID_11_)}.st0,.st1{fill-rule:evenodd;clip-rule:evenodd;fill:#8c6239}.st1,.st2,.st3{clip-path:url(#SVGID_24_)}.st2{fill:none;stroke:#ff7bac;stroke-width:12;stroke-linecap:round;stroke-miterlimit:10}.st3{fill-rule:evenodd;clip-rule:evenodd;fill:#f04c33}.st4{display:none;fill:#fc0}.st5{clip-path:url(#SVGID_24_);fill-rule:evenodd;clip-rule:evenodd;fill:#f15a24}.st6{clip-path:url(#SVGID_42_)}.st6,.st7,.st8,.st9{fill-rule:evenodd;clip-rule:evenodd}.st7{clip-path:url(#SVGID_11_);fill:#f2f2f2}.st8,.st9{clip-path:url(#SVGID_44_)}.st9{clip-path:url(#SVGID_46_)}.st10{clip-path:url(#SVGID_19_);fill:none;stroke:#ff7bac;stroke-width:12;stroke-linecap:round;stroke-miterlimit:10}.st11,.st12{fill-rule:evenodd;clip-rule:evenodd}.st11{clip-path:url(#SVGID_44_);fill:#eb707d}.st12{clip-path:url(#SVGID_48_)}.st13{display:none;fill:#609}.st14,.st15{clip-path:url(#SVGID_24_);fill-rule:evenodd;clip-rule:evenodd;fill:#f6e6db}.st15{clip-path:url(#SVGID_6_);fill:#90c}.st16,.st17,.st18,.st19,.st20,.st21{clip-path:url(#SVGID_11_);fill-rule:evenodd;clip-rule:evenodd;fill:#f7931e}.st17,.st18,.st19,.st20,.st21{clip-path:url(#SVGID_24_)}.st18,.st19,.st20,.st21{clip-path:url(#SVGID_29_);fill:#ed1c24}.st19,.st20,.st21{clip-path:url(#SVGID_42_);fill:#fff}.st20,.st21{clip-path:url(#SVGID_24_);fill:#93278f}.st21{clip-path:url(#SVGID_6_);fill:#c36}.st22,.st23,.st24,.st25,.st26,.st27{clip-path:url(#SVGID_11_);fill-rule:evenodd;clip-rule:evenodd;fill:#fbb03b}.st23,.st24,.st25,.st26,.st27{fill:#f39}.st24,.st25,.st26,.st27{fill:#ff3700}.st25,.st26,.st27{fill:#ff66ad}.st26,.st27{clip-path:url(#SVGID_24_);fill:#f60}.st27{fill:#ff7bac}.st28,.st29,.st30,.st31,.st32,.st33,.st34,.st35,.st36,.st37{clip-path:url(#SVGID_11_);fill-rule:evenodd;clip-rule:evenodd;fill:#ff9470}.st29,.st30,.st31,.st32,.st33,.st34,.st35,.st36,.st37{fill:#ffae00}.st30,.st31,.st32,.st33,.st34,.st35,.st36,.st37{fill:#ffc7ff}.st31,.st32,.st33,.st34,.st35,.st36,.st37{fill:#fc0}.st32,.st33,.st34,.st35,.st36,.st37{fill:#fc3}.st33,.st34,.st35,.st36,.st37{fill:#fc9}.st34,.st35,.st36,.st37{fill:#ffd9d9}.st35,.st36,.st37{clip-path:url(#SVGID_24_);fill:#fc0}.st36,.st37{clip-path:url(#SVGID_11_);fill:#fff}.st37{clip-path:url(#SVGID_24_)}.st38{display:none;fill:#d3135a}.st39{clip-path:url(#SVGID_19_);fill-rule:evenodd;clip-rule:evenodd;fill:#93278f}.st40{clip-path:url(#SVGID_11_);fill:#d31900}.st41,.st42,.st43,.st44,.st45{clip-path:url(#SVGID_34_);fill-rule:evenodd;clip-rule:evenodd;fill:#963}.st42,.st43,.st44,.st45{clip-path:url(#SVGID_29_);fill:#f7931e}.st43,.st44,.st45{clip-path:url(#SVGID_34_);fill:#9c6}.st44,.st45{clip-path:url(#SVGID_11_);fill:#c30}.st45{fill:#c6f}.st46,.st47,.st48,.st49,.st50,.st51{clip-path:url(#SVGID_24_);fill-rule:evenodd;clip-rule:evenodd;fill:#c93}.st47,.st48,.st49,.st50,.st51{clip-path:url(#SVGID_11_);fill:#ccc}.st48,.st49,.st50,.st51{clip-path:url(#SVGID_19_);fill:#fbb03b}.st49,.st50,.st51{clip-path:url(#SVGID_34_);fill:#f06}.st50,.st51{fill:#f96}.st51{fill:#fc0}.st52{clip-path:url(#SVGID_15_);fill:#ff8133}.st53,.st54,.st55,.st56,.st57{clip-path:url(#SVGID_19_);fill-rule:evenodd;clip-rule:evenodd;fill:#f60}.st54,.st55,.st56,.st57{fill:#f63}.st55,.st56,.st57{fill:#ff7bac}.st56,.st57{fill:#f90}.st57{clip-path:url(#SVGID_11_);fill:#369}.st58,.st59,.st60,.st61,.st62,.st63,.st64{clip-path:url(#SVGID_19_);fill-rule:evenodd;clip-rule:evenodd;fill:#fc0}.st59,.st60,.st61,.st62,.st63,.st64{fill:#fc6}.st60,.st61,.st62,.st63,.st64{fill:#ffdb00}.st61,.st62,.st63,.st64{clip-path:url(#SVGID_11_);fill:#3cf}.st62,.st63,.st64{clip-path:url(#SVGID_44_);fill:#999}.st63,.st64{clip-path:url(#SVGID_34_);fill:#c63}.st64{clip-path:url(#SVGID_29_);fill:#fbb03b}.st65,.st66,.st67,.st68,.st69,.st70{clip-path:url(#SVGID_15_);fill-rule:evenodd;clip-rule:evenodd;fill:#820082}.st66,.st67,.st68,.st69,.st70{clip-path:url(#SVGID_44_);fill:#fc0}.st67,.st68,.st69,.st70{clip-path:url(#SVGID_24_);fill:#00abff}.st68,.st69,.st70{clip-path:url(#SVGID_29_);fill:#f06}.st69,.st70{fill:#ff7bac}.st70{fill:#fff}.st72{clip-path:url(#SVGID_4_)}.st73,.st74{clip-path:url(#SVGID_44_);fill-rule:evenodd;clip-rule:evenodd;fill:#666}.st74{fill:#333}.st75{clip-path:url(#SVGID_34_);fill:none;stroke:#f03;stroke-width:8;stroke-linecap:round;stroke-miterlimit:10}.st76{display:none;clip-path:url(#SVGID_15_);fill-rule:evenodd;clip-rule:evenodd;fill:#d4145a}.st77{fill:#fc0}.st78{fill:#fff}.st80,.st81{clip-path:url(#SVGID_11_);fill-rule:evenodd;clip-rule:evenodd;fill:#a60008}.st81{clip-path:url(#SVGID_24_);fill:#a67c52}.st82{clip-path:url(#SVGID_11_);fill:#e6e6e6}.st83{clip-path:url(#SVGID_29_);fill-rule:evenodd;clip-rule:evenodd;fill:#00abff}.st84{clip-path:url(#SVGID_21_);fill:url(#SVGID_22_)}.st85,.st86{clip-path:url(#SVGID_6_);fill-rule:evenodd;clip-rule:evenodd;fill:#e06c00}.st86{clip-path:url(#SVGID_48_);fill:#ec1e24}.st87{clip-path:url(#SVGID_19_);fill:#ff7bac}.st88{clip-path:url(#SVGID_11_);fill:#b3b3b3}.st89,.st90,.st91,.st92,.st93{clip-path:url(#SVGID_15_);fill-rule:evenodd;clip-rule:evenodd;fill:#f9aa8f}.st90,.st91,.st92,.st93{clip-path:url(#SVGID_46_);fill:#fff}.st91,.st92,.st93{clip-path:url(#SVGID_29_);fill:#d76367}.st92,.st93{clip-path:url(#SVGID_19_);fill:#a67c52}.st93{clip-path:url(#SVGID_11_);fill:#e06c00}.st100,.st101,.st94,.st95,.st96,.st97,.st98,.st99{clip-path:url(#SVGID_15_);fill-rule:evenodd;clip-rule:evenodd;fill:#c90007}.st100,.st101,.st95,.st96,.st97,.st98,.st99{fill:#ff0009}.st100,.st101,.st96,.st97,.st98,.st99{fill:#ff5900}.st100,.st101,.st97,.st98,.st99{fill:#f9f}.st100,.st101,.st98,.st99{clip-path:url(#SVGID_11_);fill:#e6e6e6}.st100,.st101,.st99{clip-path:url(#SVGID_15_);fill:#ffcb05}.st100,.st101{clip-path:url(#SVGID_46_);fill:#39f}.st101{clip-path:url(#SVGID_15_);fill:#fff}.st102{clip-path:url(#SVGID_31_);fill:url(#SVGID_32_)}.st103{clip-path:url(#SVGID_6_);fill:#ed1c24}.st103,.st104,.st105,.st106{fill-rule:evenodd;clip-rule:evenodd}.st104{clip-path:url(#SVGID_29_);fill:#404041}.st105,.st106{clip-path:url(#SVGID_11_)}.st106{clip-path:url(#SVGID_15_)}.st107,.st108{clip-path:url(#SVGID_11_)}.st107{fill-rule:evenodd;clip-rule:evenodd;fill:#81afde}.st108{fill:#f15a24}.st109{clip-path:url(#SVGID_15_);fill-rule:evenodd;clip-rule:evenodd;fill:#c06}.st110{clip-path:url(#SVGID_11_)}.st111{clip-path:url(#SVGID_13_)}.st112{clip-path:url(#SVGID_17_)}.st113{clip-path:url(#SVGID_36_)}.st114{clip-path:url(#SVGID_38_)}.st115{clip-path:url(#SVGID_40_)}.st116{clip-path:url(#SVGID_42_)}.st117{clip-path:url(#SVGID_8_);fill:url(#SVGID_9_)}.st118{clip-path:url(#SVGID_24_);fill:none;stroke:#000;stroke-width:12;stroke-linecap:round;stroke-miterlimit:10}.st119{clip-path:url(#SVGID_11_);fill:#f7931e}.st120,.st121{clip-path:url(#SVGID_24_);fill-rule:evenodd;clip-rule:evenodd}.st121{clip-path:url(#SVGID_44_);fill:#e13e4f}.st122{clip-path:url(#SVGID_11_);fill:#ed1c24}.st122,.st123,.st124{fill-rule:evenodd;clip-rule:evenodd}.st123{clip-path:url(#SVGID_24_);fill:#ed1c24}.st124{clip-path:url(#SVGID_29_)}.st125{clip-path:url(#SVGID_19_);fill:none;stroke:#000;stroke-width:10;stroke-linecap:round;stroke-miterlimit:10}.st126,.st127,.st128,.st129,.st130{clip-path:url(#SVGID_44_);fill-rule:evenodd;clip-rule:evenodd;fill:#e6e6e6}.st127,.st128,.st129,.st130{fill:#e6e7e8}.st128,.st129,.st130{clip-path:url(#SVGID_15_);fill:#6d6e70}.st129,.st130{clip-path:url(#SVGID_48_);fill:#fff}.st130{clip-path:url(#SVGID_15_);fill:#09f}.st131{clip-path:url(#SVGID_26_);fill:url(#SVGID_27_)}.st132{clip-path:url(#SVGID_34_);fill-rule:evenodd;clip-rule:evenodd}</style><defs><path id="SVGID_12_" d="M592 0h1440v840H592z"/></defs><clipPath id="SVGID_2_"><use xlink:href="#SVGID_12_" style="overflow:visible"/></clipPath><g style="clip-path:url(#SVGID_2_)"><defs><path id="SVGID_14_" d="M308.6-532.1h1917.2v1917.2H308.6z"/></defs><clipPath id="SVGID_4_"><use xlink:href="#SVGID_14_" style="overflow:visible"/></clipPath><path d="M400.6 42.3v683.3L1502.1 392v-57.3z" style="clip-path:url(#SVGID_4_);fill:#ff8133"/></g><path d="M10 0h543v737H10z" style="fill:none"/><defs><path id="SVGID_43_" d="M0 0h542.8v737H0z"/></defs><clipPath id="SVGID_6_"><use xlink:href="#SVGID_43_" style="overflow:visible"/></clipPath><path d="M56.7 671.5c-1.1-8.7-9.1-15.1-17.9-13.9-9 1.2-17.1 5.7-22.9 12.6-6.4 7.7-9.3 17.7-8 27.7 1.3 9.9 6.6 18.9 14.7 24.7C30 727.9 39 730.2 48 729c8.1-1 15.7-3.9 22.5-8.3 20.3-13.2 47.8-68.2 61.3-90.9 1.1-1.8 8.6.7 10.1 2.3 2.8 3.2 12.2 2.6 5.8 10.4-15.6 19-54.7 72.7-73.1 84.6-7.8 5-16.5 8.3-25.7 9.5-10.9 1.4-21.9-1.4-30.8-7.8-9.8-7.1-16.3-18-17.8-30-1.5-12.1 1.9-24.1 9.7-33.5 7-8.5 16.9-14 27.8-15.4 12.9-1.7 24.8 7.6 26.4 20.5.3 2.1-1.2 4-3.3 4.3-2 .4-3.9-1.1-4.2-3.2" style="clip-path:url(#SVGID_6_);fill-rule:evenodd;clip-rule:evenodd;fill:#e6e6e6"/><path d="M41.1 671.6c0-6.4 5.2-11.7 11.7-11.7 6.4 0 11.7 5.2 11.7 11.7 0 6.5-5.2 11.7-11.7 11.7-6.5 0-11.7-5.2-11.7-11.7" style="clip-path:url(#SVGID_6_);fill-rule:evenodd;clip-rule:evenodd;fill:#999"/><path d="M398.6 468h144.2v29H398.6z" style="clip-path:url(#SVGID_6_);fill-rule:evenodd;clip-rule:evenodd;fill:#e6e7e8"/><path d="M542.8 496.2h-.7c-13.5 0-24.5-11-24.5-24.5s11-24.5 24.5-24.5h.7v49z" style="clip-path:url(#SVGID_6_);fill-rule:evenodd;clip-rule:evenodd;fill:#666"/><path d="M398.6 238.2h144.2v29H398.6z" style="clip-path:url(#SVGID_6_);fill-rule:evenodd;clip-rule:evenodd;fill:#e6e7e8"/><path d="M542.8 266.4h-.7c-13.5 0-24.5-11-24.5-24.5s11-24.5 24.5-24.5h.7v49z" style="clip-path:url(#SVGID_6_);fill-rule:evenodd;clip-rule:evenodd;fill:#666"/><path d="M398.6 542.2h144.2v29H398.6z" style="clip-path:url(#SVGID_6_);fill-rule:evenodd;clip-rule:evenodd;fill:#e6e7e8"/><path d="M542.8 543h-.7c-13.5 0-24.5 11-24.5 24.5s11 24.5 24.5 24.5h.7v-49z" style="clip-path:url(#SVGID_6_);fill-rule:evenodd;clip-rule:evenodd;fill:#666"/><path d="M398.6 303.6h144.2v29H398.6z" style="clip-path:url(#SVGID_6_);fill-rule:evenodd;clip-rule:evenodd;fill:#e6e7e8"/><path d="M542.8 304.4h-.7c-13.5 0-24.5 11-24.5 24.5s11 24.5 24.5 24.5h.7v-49z" style="clip-path:url(#SVGID_6_);fill-rule:evenodd;clip-rule:evenodd;fill:#666"/><path d="M301.1 127.1V69h130.1c16 0 29.1 13.1 29.1 29.1s-13.1 29.1-29.1 29.1H301.1z" style="clip-path:url(#SVGID_6_);fill-rule:evenodd;clip-rule:evenodd;fill:#e13e4f"/><path d="M301.1 100.2v-4.4h127.1c1.2 0 2.2 1 2.2 2.2 0 1.2-1 2.2-2.2 2.2H301.1z" style="clip-path:url(#SVGID_6_);fill-rule:evenodd;clip-rule:evenodd;fill:#eb707d"/><path d="M207.6 145.1a89.91 89.91 0 0 0-41-9.9c-49.8 0-90.1 40.3-90.1 90.1 0 22.6 8.3 43.2 22 59-13.7 15.8-22 36.4-22 59s8.3 43.2 22 59c-13.7 15.8-22 36.4-22 59 0 23 8.6 43.9 22.8 59.9-14.2 15.9-22.8 36.9-22.8 59.9 0 49.8 40.3 90.1 90.1 90.1 36.5 0 67.9-21.7 82.1-52.9 14.9 29.4 45.3 49.5 80.4 49.5 49.8 0 90.1-40.3 90.1-90.1 0-22.3-8.1-42.7-21.5-58.4 13.4-15.7 21.5-36.1 21.5-58.4 0-22.3-8.1-42.7-21.5-58.4 13.4-15.7 21.5-36.1 21.5-58.4s-8.1-42.7-21.5-58.4c13.4-15.7 21.5-36.1 21.5-58.4 0-49.8-40.3-90.1-90.1-90.1-13.8 0-26.8 3.1-38.5 8.6-12.5-6.6-26.8-10.3-41.9-10.3-14.9-.3-28.8 3.3-41.1 9.6" style="clip-path:url(#SVGID_6_);fill-rule:evenodd;clip-rule:evenodd;fill:#999"/><path d="m382 134.3-92 91.9c-28.6 28.6-75.4 28.6-104 0-28.6-28.6-28.6-75.4 0-104l91.9-91.9c28.6-28.6 75.4-28.6 104 0 28.7 28.6 28.7 75.4.1 104" style="clip-path:url(#SVGID_6_);fill-rule:evenodd;clip-rule:evenodd;fill:#333"/><path d="m219.3 238.5-38.8-42.2-54 49.6c-11.6 10.7-12.4 28.9-1.7 40.5 10.7 11.6 28.9 12.4 40.5 1.7l54-49.6zM172.1 192.8l20.4-53.5-68.5-26.2c-14.7-5.6-31.4 1.9-37 16.6-5.6 14.7 1.9 31.4 16.6 37l68.5 26.1z" style="clip-path:url(#SVGID_6_);fill-rule:evenodd;clip-rule:evenodd;fill:#666"/><path d="m173.3 175.8 11.3-29.7-56.6-21.6c-8.1-3.1-17.4 1.1-20.5 9.2-3.1 8.1 1.1 17.4 9.2 20.5l56.6 21.6z" style="clip-path:url(#SVGID_6_);fill-rule:evenodd;clip-rule:evenodd;fill:#999"/><path d="M160.6 83.8H234l3.1 168.7h-68.2z" style="clip-path:url(#SVGID_6_);fill-rule:evenodd;clip-rule:evenodd;fill:#fc0"/><path d="M178.4 99.9H217V160h-38.6zM182.6 189.5h41.5v49.3h-41.5z" style="clip-path:url(#SVGID_6_);fill-rule:evenodd;clip-rule:evenodd"/><path d="M302 0c15.1 0 27.4 12.3 27.4 27.4S317.1 54.7 302 54.7c-15.1 0-27.4-12.2-27.4-27.4S286.8 0 302 0" style="clip-path:url(#SVGID_6_);fill-rule:evenodd;clip-rule:evenodd;fill:#666"/></svg>