<svg xmlns="http://www.w3.org/2000/svg" xmlns:xlink="http://www.w3.org/1999/xlink" xml:space="preserve" id="Layer_1" width="944" height="360" x="0" y="0" style="enable-background:new 0 0 944 360" version="1.1"><style>.st72{clip-path:url(#SVGID_4_)}</style><defs><path id="SVGID_39_" d="M0 0h944v360H0z"/></defs><clipPath id="SVGID_2_"><use xlink:href="#SVGID_39_" style="overflow:visible"/></clipPath><g style="clip-path:url(#SVGID_2_)"><defs><path id="SVGID_41_" d="M-.6 0h945.2v518H-.6z"/></defs><clipPath id="SVGID_4_"><use xlink:href="#SVGID_41_" style="overflow:visible"/></clipPath><path d="M167.1 434.1V83.9C167.1 37.7 129.4 0 83.3 0 37.1 0-.6 37.7-.6 83.9V434.1c0 46.1 37.7 83.9 83.9 83.9 46.1 0 83.8-37.7 83.8-83.9M361.5 434.1V83.9c0-46.1-37.7-83.9-83.9-83.9-46.1 0-83.9 37.7-83.9 83.9V434.1c0 46.1 37.7 83.9 83.9 83.9s83.9-37.7 83.9-83.9M555.9 434.1V83.9C555.9 37.7 518.1 0 472 0s-83.9 37.7-83.9 83.9V434.1c0 46.1 37.7 83.9 83.9 83.9s83.9-37.7 83.9-83.9M750.2 434.1V83.9c0-46.1-37.7-83.9-83.9-83.9-46.1 0-83.9 37.7-83.9 83.9V434.1c0 46.1 37.7 83.9 83.9 83.9s83.9-37.7 83.9-83.9M776.9 83.9V434.1c0 46.1 37.7 83.9 83.9 83.9 46.1 0 83.9-37.7 83.9-83.9V83.9C944.7 37.8 907 0 860.8 0s-83.9 37.7-83.9 83.9" style="clip-path:url(#SVGID_4_);fill-rule:evenodd;clip-rule:evenodd;fill:#fff"/><path d="M240.5 417.7V215.1c0-33-27-60-60-60s-60 27-60 60V417.7c0 33 27 60 60 60s60-27 60-60" class="st72"/><path d="M434.8 417.7V215.1c0-33-27-60-60-60s-60 27-60 60V417.7c0 33 27 60 60 60s60-27 60-60" style="clip-path:url(#SVGID_4_);fill-rule:evenodd;clip-rule:evenodd"/><path d="M823.6 417.7V215.1c0-33-27-60-60-60s-60 27-60 60V417.7c0 33 27 60 60 60s60-27 60-60" class="st72"/><path d="M629.2 417.7V215.1c0-33-27-60-60-60s-60 27-60 60V417.7c0 33 27 60 60 60s60-27 60-60" style="clip-path:url(#SVGID_4_);fill-rule:evenodd;clip-rule:evenodd"/></g></svg>