<svg xmlns="http://www.w3.org/2000/svg" xmlns:xlink="http://www.w3.org/1999/xlink" xml:space="preserve" id="Layer_1" width="178" height="159.9" x="0" y="0" style="enable-background:new 0 0 178 159.9" version="1.1"><style>.st71{clip-path:url(#SVGID_2_)}</style><defs><path id="SVGID_1_" d="M0 0h154v159.9H0z"/></defs><clipPath id="SVGID_2_"><use xlink:href="#SVGID_1_" style="overflow:visible"/></clipPath><path d="M71.1 0H47.4c0 26.1-21.3 47.4-47.4 47.4v23.7c39.2 0 71.1-31.9 71.1-71.1M0 106.6h45.8C40 126.9 19.4 136.2 0 136.2v23.7c19.1 0 36.7-6.1 49.6-17.3 13.8-11.9 21.5-28.9 21.5-47.9V82.9H0v23.7zM82.9 106.6h45.8c-5.8 20.3-26.4 29.6-45.8 29.6v23.7c19.1 0 36.7-6.1 49.6-17.3 13.8-11.9 21.5-28.9 21.5-47.9V82.9H82.9v23.7zM106.6 32.4l19.3 38.7h26.5L117.2.6H96L60.8 71.1h26.5z" class="st71"/><path d="M151.8 0h9v1.6h-7.1v4.3h5.8v1.6h-5.8V14h-1.8V0zM164.2 0h2.2l4.7 11.4L175.8 0h2.2v14h-1.8V3.4L171.8 14h-1.5l-4.4-10.6V14h-1.8V0z"/></svg>