<svg xmlns="http://www.w3.org/2000/svg" xmlns:xlink="http://www.w3.org/1999/xlink" xml:space="preserve" id="Layer_1" width="1440" height="1680" x="0" y="0" style="enable-background:new 0 0 1440 1680" version="1.1"><style>.st14{fill:#ed1c24}.st41{fill:none;stroke:#000;stroke-width:50;stroke-linecap:round;stroke-miterlimit:10}.st45{fill:#f7931e}.st48{fill:none;stroke:#ff7bac;stroke-width:50;stroke-linecap:round;stroke-miterlimit:10}.st49{fill:#93278f}.st51{fill:#fbb03b}.st54{fill:#f06}.st55{fill:#f60}.st57{fill:#ff7bac}.st61{fill:#fc0}.st64{fill:#fff}.st70{fill:#c63}.st78{fill:#00abff}.st88{fill:#d76367}.st104{fill:#a67c52}.st107{fill:#404041}</style><defs><path id="SVGID_16_" d="M0 0h1440v1680H0z"/></defs><clipPath id="SVGID_2_"><use xlink:href="#SVGID_16_" style="overflow:visible"/></clipPath><g style="clip-path:url(#SVGID_2_)"><path d="M1333.9 136.5c-104.2 0-188.6 84.4-188.6 188.6 0 104.2 84.4 188.6 188.6 188.6 44.7 0 85.8-15.6 118.2-41.5V178c-32.4-25.9-73.5-41.5-118.2-41.5z" style="fill:#f90"/><path d="M551.7 352c0 18.7 11.9 30.8 27.9 35.8l158.9 49.9c6.6 2.1 13.6 3.2 20.9 3.2 27.3 0 50.7-16 60.7-38.6 6.3-14.2 21-24.2 38-24.2h455.5v-63.3h-723c-21.5-.1-38.9 18.5-38.9 37.2" style="fill:#f63"/><path d="M543.2 333.8c0 18.7 11.9 30.8 27.9 35.8L730 419.5c6.6 2.1 13.6 3.2 20.9 3.2 27.3 0 50.7-16 60.7-38.6 6.3-14.2 21-24.2 38-24.2H1305v-63.3H582.2c-21.5-.1-39 18.4-39 37.2" class="st61"/><path d="M1333.9 241.8c46 0 83.3 37.3 83.3 83.3s-37.3 83.3-83.3 83.3-83.3-37.3-83.3-83.3 37.3-83.3 83.3-83.3" class="st55"/><path d="M1333.9 269.1c30.9 0 55.9 25 55.9 55.9s-25 55.9-55.9 55.9-55.9-25-55.9-55.9c0-30.8 25-55.9 55.9-55.9" style="fill:#fc6"/><path d="M1315 329.8c0 .7-.6 1.3-1.3 1.3H742.5c-.7 0-1.3-.6-1.3-1.3 0-.7.6-1.3 1.3-1.3h571c.8 0 1.5.6 1.5 1.3" style="fill:#ffdb00"/><path d="M1249.6 945.9c70.1 70.1 70.1 183.9 0 254.1" class="st41"/><path d="M1008.7 943.3H903.6c-50.4 0-91.4-41-91.4-91.4 0-14 11.3-25.2 25.2-25.2 14 0 25.2 11.3 25.2 25.2 0 22.5 18.3 40.8 40.8 40.8h105.1c14 0 25.2 11.4 25.2 25.2.2 14.1-11 25.4-25 25.4" class="st57"/><path d="M1088 460.3c48.4 0 88.1 39.6 88.1 88.1v10c0 48.4-42.3 88.1-88.1 88.1H712.3" class="st48"/><path d="M830.3 630.1h224.6c106.4 0 193.5 87.1 193.5 193.5v109.2h-162.6V825.2c0-69-56.4-125.6-125.6-125.6H830.3v-69.5z" class="st104"/><path d="M739.3 719.2c0 44.3 35.9 80.2 80.2 80.2 44.3 0 80.2-35.9 80.2-80.2 0-44.3-35.9-80.2-80.2-80.2-44.4-.1-80.2 35.9-80.2 80.2" class="st51"/><path d="M925.8 608.7c0 31.5 25.5 57.2 57.2 57.2 31.5 0 57.2-25.5 57.2-57.2 0-31.5-25.5-57.2-57.2-57.2-31.5.1-57.2 25.7-57.2 57.2" class="st57"/><path d="M950.6 595.1c0 17.9 14.5 32.4 32.4 32.4s32.4-14.5 32.4-32.4-14.5-32.4-32.4-32.4-32.4 14.5-32.4 32.4" class="st49"/><path d="M423.5 629c0 77.3 62.7 140 140.1 140 77.3 0 140-62.7 140-140s-62.7-140-140-140c-77.4-.1-140.1 62.7-140.1 140" class="st51"/><path d="M629.2 555.4c29.6 0 53.6-24 53.6-53.6s-24-53.6-53.6-53.6c-23.3 0-43.2 14.9-50.6 35.7-8.2-11-21.3-18.2-36.2-18.2-22.1 0-40.4 16-44.2 37-6-12.3-18.5-20.8-33.1-20.8-20.3 0-36.8 16.5-36.8 36.8 0 20.4 16.5 36.8 36.8 36.8h164.1z" class="st51"/><defs><path id="SVGID_18_" d="M623.5 518.6c-56.4 0-102.7 46.2-102.7 102.7 0 56.4 46.2 102.7 102.7 102.7h178.9c39 0 70.9-31.9 70.9-70.9s-31.9-70.9-70.9-70.9H710v-63.4h-86.5z"/></defs><clipPath id="SVGID_4_"><use xlink:href="#SVGID_18_" style="overflow:visible"/></clipPath><linearGradient id="SVGID_6_" x1="-11274.97" x2="-11262.336" y1="-486.981" y2="-486.981" gradientTransform="scale(-30.997 30.997) rotate(-40.542 -4959.52 -15459.296)" gradientUnits="userSpaceOnUse"><stop offset="0" style="stop-color:#ff7bac"/><stop offset=".146" style="stop-color:#ff80af"/><stop offset=".33" style="stop-color:#ff90b9"/><stop offset=".536" style="stop-color:#ffaaca"/><stop offset=".757" style="stop-color:#ffcee0"/><stop offset=".988" style="stop-color:#fffcfd"/><stop offset="1" style="stop-color:#fff"/></linearGradient><path d="M724.4 898.1 419.3 637.3l250.4-292.8 305.1 260.9z" style="clip-path:url(#SVGID_4_);fill:url(#SVGID_6_)"/><path d="M798.6 724.6c41.2 0 74.7 33.4 74.7 74.7 0 41.2-33.4 74.7-74.7 74.7-32.5 0-60.1-20.8-70.4-49.8-11.3 15.4-29.7 25.4-50.4 25.4-30.8 0-56.3-22.2-61.6-51.5-8.3 17.1-25.8 28.9-46.1 28.9-28.3 0-51.3-22.9-51.3-51.3 0-28.3 22.9-51.3 51.3-51.3h107.7l120.8.2z" style="fill:#f04c33"/><path d="M627.9 754.1c0 16.2 13.3 29.5 29.4 29.5 16.2 0 29.4-13.3 29.4-29.5v-17.6c0-2.6 2.1-4.8 4.8-4.8 2.6 0 4.8 2.1 4.8 4.8v5.1c0 9.3 7.7 17 17 17s17-7.7 17-17-7.7-17-17-17h-56c-16.1 0-29.4 13.3-29.4 29.5" style="fill:#f6e6db"/><path d="M601.5 551.3c20.4 0 41.2 11.3 41.2 48.8s-28.3 61.5-41.2 61.5V551.3z" class="st64"/><path d="M605.7 591.7c0-9 7.3-16.4 16.4-16.4 9 0 16.4 7.3 16.4 16.4 0 9-7.3 16.4-16.4 16.4-9 0-16.4-7.3-16.4-16.4" class="st78"/><path d="M612.5 591.7c0-5.3 4.3-9.6 9.6-9.6s9.6 4.3 9.6 9.6-4.3 9.6-9.6 9.6-9.6-4.2-9.6-9.6"/><path d="M972 571.7v-24.1c0-5.7 4.7-10.3 10.3-10.3 5.7 0 10.3 4.7 10.3 10.3v24.1c0 5.7-4.7 10.3-10.3 10.3-5.6.1-10.3-4.6-10.3-10.3" class="st14"/><path d="M977 671.6c-31.5 0-57.2 25.5-57.2 57.2 0 31.5 25.5 57.2 57.2 57.2 31.5 0 57.2-25.5 57.2-57.2-.1-31.5-25.6-57.2-57.2-57.2" class="st57"/><path d="M990.7 696.5c-17.9 0-32.4 14.5-32.4 32.4s14.5 32.4 32.4 32.4 32.4-14.5 32.4-32.4c-.1-17.9-14.6-32.4-32.4-32.4" class="st49"/><path d="M1014 717.9h24.1c5.7 0 10.3 4.7 10.3 10.3 0 5.7-4.7 10.3-10.3 10.3H1014c-5.7 0-10.3-4.7-10.3-10.3-.1-5.7 4.6-10.3 10.3-10.3" class="st14"/><path d="M1313 910.2c0 77.6-62.9 140.5-140.5 140.5S1032 987.8 1032 910.2s62.9-140.5 140.5-140.5 140.5 63 140.5 140.5" class="st104"/><path d="M1106.1 995c0 99.2-80.5 179.7-179.7 179.7" class="st41"/><path d="M1054.6 856.1c-3.1 0-5.7 2.5-5.7 5.7s2.5 5.7 5.7 5.7h44.6c4.9 0 8.9 3.9 8.9 8.9s-4 8.9-8.9 8.9h-44.6c-3.1 0-5.7 2.5-5.7 5.7s2.5 5.7 5.7 5.7h44.6c4.9 0 8.9 4 8.9 8.9s-4 8.9-8.9 8.9h-44.6c-3.1 0-5.7 2.5-5.7 5.7 0 3.1 2.5 5.7 5.7 5.7h44.6c4.9 0 8.9 4 8.9 8.9 0 5-4 8.9-8.9 8.9H1004.4V874c0-19.5 15.9-35.4 35.4-35.4H1099.1c4.9 0 8.9 4 8.9 8.9s-4 8.9-8.9 8.9h-44.5v-.3z" class="st57"/><path d="M440.6 1083.6v-50.2c0-62.3 51-113.3 113.3-113.3h95.9c62.3 0 113.3 51 113.3 113.3v50.2H440.6z" class="st55"/><path d="M763.1 1075.9v113.3c0 62.3-51 113.3-113.3 113.3h-95.9c-62.3 0-113.3-51-113.3-113.3v-113.3h322.5z" style="fill:#8c6239"/><path d="M763.1 1111.8v45.9c0 62.3-51 113.3-113.3 113.3h-95.9c-62.3 0-113.3-51-113.3-113.3v-45.9h322.5z" style="fill:#f15a24"/><path d="M763.1 1075.9v50.2c0 62.3-51 113.3-113.3 113.3h-95.9c-62.3 0-113.3-51-113.3-113.3v-50.2h322.5z" class="st45"/><path d="M-8.6 954.5h358.9c36.4 0 66.2 29.8 66.2 66.2v129.7c0 36.4-29.8 66.2-66.2 66.2H-8.6V954.5z" class="st61"/><path d="M354.7-16.6v397.4c0 36.4-29.8 66.2-66.2 66.2H158.8c-36.4 0-66.2-29.8-66.2-66.2V-16.6h262.1z" style="fill:#c93"/><path d="M295.8 1160v176c0 36.4 29.8 66.2 66.2 66.2h84" class="st48"/><path d="M561.2 920.9H634v97.2h-72.8z" class="st64"/><path d="M561.2 920.9c0 20.1 16.3 36.4 36.4 36.4 20.1 0 36.4-16.3 36.4-36.4 0-20.1-16.3-36.4-36.4-36.4-20.2.1-36.4 16.4-36.4 36.4" class="st78"/><path d="M575.6 920.9c0 12.2 9.8 22 22 22s22-9.8 22-22-9.8-22-22-22-22 9.9-22 22"/><defs><path id="SVGID_21_" d="M535.4 1017.6H411.6c-32.4 0-59 26.6-59 59s26.6 59 59 59h248.5c32.4 0 59-26.6 59-59s-26.6-59-59-59L535.5 957v60.6h-.1z"/></defs><clipPath id="SVGID_8_"><use xlink:href="#SVGID_21_" style="overflow:visible"/></clipPath><linearGradient id="SVGID_9_" x1="-11276.592" x2="-11263.957" y1="-126.486" y2="-126.486" gradientTransform="scale(-26.2208 26.2208) rotate(39.153 -5880.578 15777.607)" gradientUnits="userSpaceOnUse"><stop offset="0" style="stop-color:#ff7bac"/><stop offset=".268" style="stop-color:#ffa2c4"/><stop offset=".766" style="stop-color:#ffe5ee"/><stop offset="1" style="stop-color:#fff"/></linearGradient><path d="m806.3 1064.3-307.6 250.5-233.5-286.6L573 777.6z" style="clip-path:url(#SVGID_8_);fill:url(#SVGID_9_)"/><path d="M486.4 1014.1v16.7c0 1.4 1.2 2.6 2.6 2.6 1.4 0 2.6-1.2 2.6-2.6v-16.4c0-6.5 5.3-11.7 11.8-11.7 6.4 0 11.7 5.3 11.7 11.7v19.6c0 14.3-11.8 26-26 26-14.3 0-26-11.8-26-26v-19.8c0-6.4 5.3-11.7 11.7-11.7 6.3-.2 11.6 5.1 11.6 11.6" class="st54"/><path d="M691 1080.9c0 17-8 31.9-19.9 39.8-11.9-8-19.9-22.8-19.9-39.8 0-17 8-31.9 19.9-39.8 12 7.9 19.9 22.8 19.9 39.8" class="st64"/><path d="M688.2 1080.9c0 9.4-7.6 17-17 17-9.3 0-17-7.6-17-17s7.6-17 17-17c9.4.1 17 7.7 17 17" class="st78"/><path d="M681.2 1080.9c0 5.5-4.5 9.9-9.9 9.9-5.5 0-9.9-4.5-9.9-9.9 0-5.5 4.5-9.9 9.9-9.9s9.9 4.5 9.9 9.9"/><path d="M294.2 1178.5c-22 0-39.7-17.8-39.7-39.7s17.8-39.7 39.7-39.7c21.9 0 39.7 17.8 39.7 39.7s-17.8 39.7-39.7 39.7" class="st14"/><path d="M516.1 1461.2h-31.4c-19.4 0-35.2-15.9-35.2-35.3l.2-69.4c3.3-18 19.3-31.8 38.2-31.8h33.5c5.4 0 9.7 4.4 9.7 9.7 0 5.4-4.4 9.7-9.7 9.7h-18.6c-3.4 0-6.2 2.7-6.2 6.2 0 3.4 2.7 6.2 6.2 6.2h13.5l90.7.2c4.9 0 8.8 4 8.8 8.8 0 4.9-4 8.8-8.8 8.8l-90.6-.2c-3.1 0-5.7 2.5-5.7 5.7 0 3.1 2.5 5.7 5.7 5.7l56.1.1c4.9 0 8.8 4 8.8 8.8 0 4.9-4 8.8-8.8 8.8l-56.1-.1c-3.1 0-5.7 2.5-5.7 5.7 0 3.1 2.5 5.7 5.7 5.7l56.1.1c4.9 0 8.8 4 8.8 8.8 0 4.9-4.1 8.8-8.8 8.8l-56.1-.1c-3.1 0-5.7 2.5-5.7 5.7 0 3.1 2.5 5.7 5.7 5.7l56.1.1c4.9 0 8.8 4 8.8 8.8 0 4.9-4 8.8-8.8 8.8h-56.4z" class="st57"/><path d="M528.7 1334.5c0 3.4-2.8 6.2-6.2 6.2h-8.2c-3.4 0-6.2-2.8-6.2-6.2 0-3.4 2.8-6.2 6.2-6.2h8.3c3.3 0 6.1 2.7 6.1 6.2M612.1 1365.6c0 2.7-2.3 5.1-5.1 5.1h-6.7c-2.7 0-5.1-2.3-5.1-5.1 0-2.7 2.3-5.1 5.1-5.1h6.7c2.7.1 5.1 2.4 5.1 5.1" class="st64"/><path d="M493.2 1030.6c0 2.3-1.9 4.3-4.3 4.3-2.3 0-4.3-1.9-4.3-4.3V926.7c0-10.2-8.3-18.5-18.5-18.5h-8.5c-8.6 0-15.7-7.1-15.7-15.7s7.1-15.7 15.7-15.7h5c16.8 0 30.6 13.8 30.6 30.6v123.2z" class="st14"/><path d="M800.4 1131.2h141.2v78.5l-141.2 137.2v-113.3l28-32.1h-28z" class="st88"/><path d="M879.3 1247.9c0 9.3-7.6 16.8-16.8 16.8-9.3 0-16.9-7.6-16.9-16.8s7.6-16.8 16.9-16.8c9.3-.1 16.8 7.5 16.8 16.8" class="st51"/><path d="M871.5 1247.9c0 5-4.1 9-9 9-5 0-9-4.1-9-9 0-5 4.1-9 9-9s9 4.1 9 9" class="st107"/><path d="M910.9 1216.3c0 9.3-7.5 16.8-16.8 16.8s-16.9-7.6-16.9-16.8c0-9.3 7.6-16.8 16.9-16.8 9.2 0 16.8 7.5 16.8 16.8" class="st51"/><path d="M903.1 1216.3c0 5-4.1 9-9 9-5 0-9-4.1-9-9 0-5 4.1-9 9-9 5 0 9 4.1 9 9" class="st107"/><path d="m1132.8 1253.8 99.9-99.8 55.5 55.5-2.8 196.9-80.1-80.1-2.8-42.5-19.8 19.9z" class="st88"/><path d="M1271.3 1280.6c6.6 6.6 6.6 17.2 0 23.8-6.6 6.6-17.2 6.6-23.8 0-6.6-6.6-6.6-17.2 0-23.8 6.4-6.6 17.2-6.6 23.8 0" class="st51"/><path d="M1265.7 1286.2c3.5 3.5 3.5 9.2 0 12.8-3.5 3.5-9.3 3.5-12.8 0s-3.5-9.2 0-12.8c3.6-3.6 9.3-3.6 12.8 0" class="st107"/><path d="M1271.3 1236c6.6 6.6 6.6 17.2 0 23.8-6.6 6.6-17.2 6.6-23.8 0-6.6-6.6-6.6-17.2 0-23.8 6.4-6.6 17.2-6.6 23.8 0" class="st51"/><path d="M1265.7 1241.5c3.5 3.5 3.5 9.2 0 12.8-3.5 3.5-9.3 3.5-12.8 0s-3.5-9.2 0-12.8c3.6-3.6 9.3-3.6 12.8 0" class="st107"/><path d="M1118.2 418.7v31.4c0 19.4-15.9 35.2-35.3 35.2l-69.4-.2c-18-3.3-31.8-19.3-31.8-38.2v-33.5c0-5.4 4.4-9.7 9.7-9.7 5.4 0 9.7 4.4 9.7 9.7V432c0 3.4 2.7 6.2 6.2 6.2 3.4 0 6.2-2.7 6.2-6.2v-13.5l.2-97.1c0-4.9 4-8.8 8.8-8.8s8.8 3.9 8.8 8.8l-.2 97c0 3.1 2.5 5.7 5.7 5.7 3.1 0 5.7-2.5 5.7-5.7l.1-98.3c0-4.9 4-8.8 8.8-8.8 4.9 0 8.8 4.1 8.8 8.8l-.1 98.3c0 3.1 2.5 5.7 5.7 5.7 3.1 0 5.7-2.5 5.7-5.7l.1-98.3c0-4.9 4-8.8 8.8-8.8 4.9 0 8.8 4 8.8 8.8l-.1 98.3c0 3.1 2.5 5.7 5.7 5.7 3.1 0 5.7-2.5 5.7-5.7l.1-98.3c0-4.9 4-8.8 8.8-8.8 4.9 0 8.8 4 8.8 8.8v98.6z" class="st57"/><path d="M630.9 264.8h4.9v30.6h-4.9z" class="st51"/><path d="M618.4 257.9c0-8.3 6.7-15 15-15s15 6.7 15 15-6.7 15-15 15c-8.4 0-15-6.7-15-15" class="st45"/><path d="M670.5 264.8h4.9v30.6h-4.9z" class="st51"/><path d="M658 257.9c0-8.3 6.7-15 15-15s15 6.7 15 15-6.7 15-15 15c-8.2 0-15-6.7-15-15" class="st45"/><path d="M710.3 264.8h4.9v30.6h-4.9z" class="st51"/><path d="M697.7 257.9c0-8.3 6.7-15 15-15s15 6.7 15 15-6.7 15-15 15-15-6.7-15-15" class="st45"/><defs><path id="SVGID_24_" d="M157 454.5v220.9c0 40.6 33.2 74 74 74 40.6 0 74-33.2 74-74l58.5-112.5H305V454.5c0-40.6-33.2-74-74-74-40.8.1-74 33.3-74 74"/></defs><clipPath id="SVGID_11_"><use xlink:href="#SVGID_24_" style="overflow:visible"/></clipPath><linearGradient id="SVGID_13_" x1="-11525.916" x2="-11513.284" y1="-309.188" y2="-309.188" gradientTransform="matrix(-16.3333 0 0 16.3333 -187892.578 5615.043)" gradientUnits="userSpaceOnUse"><stop offset="0" style="stop-color:#ff7bac"/><stop offset=".268" style="stop-color:#ffa2c4"/><stop offset=".766" style="stop-color:#ffe5ee"/><stop offset="1" style="stop-color:#fff"/></linearGradient><path d="M157 380.6h206.3v368.8H157z" style="clip-path:url(#SVGID_11_);fill:url(#SVGID_13_)"/><path d="M207.4 654c0-21.7 17.5-39.2 39.2-39.2 21.7 0 39.2 17.5 39.2 39.2 0 21.7-17.5 39.2-39.2 39.2-21.5 0-39.2-17.5-39.2-39.2" style="fill:#9c6"/><path d="M224.8 654c0-12.1 9.8-21.9 21.9-21.9 12.1 0 21.9 9.8 21.9 21.9 0 12.1-9.8 21.9-21.9 21.9-12.1 0-21.9-9.8-21.9-21.9"/><path d="M293.2 712.2h-100c-20.1 0-36.3-16.4-36.3-36.4V480H51.8c-7.9 8.1-15.6 16.5-15.6 33.5 0 35 32.6 33.4 32.6 68.4 0 35.1-27 31.7-27 66.8 0 35.1 27 35.1 27 70.1 0 55 44.6 99.6 99.6 99.6h124.8c29.2 0 53.1-23.9 53.1-53.1 0-29.2-23.9-53.1-53.1-53.1" style="fill:#963"/><path d="m297.4 532.7-37.2-33.3 50.4-.8h.8c2.5 0 5.1.4 7.6 1.3 10.3 3.9 15.5 15.6 11.6 25.9-4 10.3-15.6 15.5-25.9 11.6-2.5-1-4.8-2.4-6.6-4.2-.3-.2-.5-.3-.7-.5" class="st54"/><path d="m296.8 465.3-36.6 34 50.5-.1h.8c2.5 0 5.1-.5 7.6-1.5 10.3-4.2 15.3-15.9 11-26.1-4.2-10.3-15.9-15.3-26.1-11-2.5 1-4.7 2.5-6.5 4.3-.3 0-.5.2-.7.4" class="st54"/><path d="M785.7 582.4c0 37.2-15.7 49.4-50.5 49.4" style="fill:none;stroke:#f03;stroke-width:30;stroke-linecap:round;stroke-miterlimit:10"/><path d="M24.9 457.6c0 45.2 36.7 81.9 81.9 81.9s81.9-36.7 81.9-81.9-36.7-81.9-81.9-81.9c-45.2.1-81.9 36.7-81.9 81.9" style="fill:#f96"/><path d="M202.3 292.6c0 14.5 11.8 26.2 26.2 26.2 14.5 0 26.1-11.8 26.1-26.2 0-14.5-11.8-26.2-26.1-26.2-14.6 0-26.2 11.7-26.2 26.2M202.3 201.3c0 14.5 11.8 26.2 26.2 26.2 14.5 0 26.1-11.8 26.1-26.2 0-14.5-11.8-26.2-26.1-26.2-14.6.1-26.2 11.8-26.2 26.2M202.3 110.1c0 14.5 11.8 26.2 26.2 26.2 14.5 0 26.1-11.8 26.1-26.2 0-14.5-11.8-26.2-26.1-26.2-14.6.1-26.2 11.7-26.2 26.2" class="st70"/><path d="m1336.6 845.9-53.6 53.7-53.6-53.7 53.6-53.6z" class="st61"/></g><path d="M0 0h1440v1680H0z" style="clip-path:url(#SVGID_2_);fill:none"/></svg>