<svg xmlns="http://www.w3.org/2000/svg" xml:space="preserve" id="Layer_1" x="0" y="0" style="enable-background:new 0 0 1440 1680" version="1.1" viewBox="0 0 1440 1680"><style>.st12,.st4,.st5,.st7{fill-rule:evenodd;clip-rule:evenodd;fill:#ed1c24}.st12,.st5,.st7{fill:#e06c00}.st12,.st7{fill:#f39}.st12{fill:#f7931e}.st13{fill:#fbb03b}.st13,.st15{fill-rule:evenodd;clip-rule:evenodd}.st16{fill:#f15a24}.st17,.st18{fill-rule:evenodd;clip-rule:evenodd;fill:#ffc7ff}.st18{fill:#ff3700}.st20,.st21,.st23,.st24,.st26,.st27{fill-rule:evenodd;clip-rule:evenodd;fill:#c30}.st21,.st23,.st24,.st26,.st27{fill:#ffd9d9}.st23,.st24,.st26,.st27{fill:#ccc}.st24,.st26,.st27{fill:#e6e6e6}.st26,.st27{fill:#ff9470}.st27{fill:#ffae00}.st28{fill:#d31900}.st29,.st31{fill-rule:evenodd;clip-rule:evenodd;fill:#369}.st31{fill:#8c6239}.st32{fill:#b3b3b3}.st34{fill:#e6e6e6}.st35{fill-rule:evenodd;clip-rule:evenodd;fill:#fff}.st36{fill:#ffe10d}</style><path d="M111.7 391.2c0 337 273.2 610.2 610.2 610.2s610.2-273.2 610.2-610.2c0-148.9-53.3-285.3-141.9-391.2H253.6C165 105.9 111.7 242.3 111.7 391.2z" style="fill:#90c"/><path d="M884.4 655.1h196v321.4c0 84.9 47.7 159.2 117.7 197.4v1.8H767v-2.4c69.8-38.2 117.3-112.4 117.3-197.2v-321h.1z" style="fill-rule:evenodd;clip-rule:evenodd;fill:#c36"/><path d="M749.7 600.7c9.5 4.9 19.4 8.4 29.4 10.5l123.2 25 85.5-239.7-58.7-50.2-59-12-74.5 141.1c-12.7 24-42.7 33.3-66.8 20.6-24-12.7-33.3-42.7-20.6-66.8l-7.6 14.4c-29.6 56-8.3 125.9 47.2 156.1.6.3 1.3.7 1.9 1zM1123.9 598.2c-25.8 0-47-21.1-47-47v-186c0-25.8 21.1-47 47-47 25.8 0 47 21.1 47 47v186c-.1 25.8-21.2 47-47 47z" class="st4"/><path d="M1123.9 889.1c-25.8 0-47-21.1-47-47V546.7c0-25.8 21.1-47 47-47 25.8 0 47 21.1 47 47v295.5c-.1 25.8-21.2 46.9-47 46.9z" class="st5"/><linearGradient id="SVGID_1_" x1="807.286" x2="1170.666" y1="1084.728" y2="1294.37" gradientTransform="matrix(1 0 0 -1 0 1680)" gradientUnits="userSpaceOnUse"><stop offset="0" style="stop-color:#ff7bac"/><stop offset=".285" style="stop-color:#ffa5c6"/><stop offset=".757" style="stop-color:#ffe6ef"/><stop offset=".98" style="stop-color:#fff"/></linearGradient><path d="M981.3 739.2c-53.9 0-98-44.1-98-98V497.5H806l77.4-149c0-53.9 44.1-98 98-98s98 44.1 98 98v292.7c-.1 53.9-44.2 98-98.1 98z" style="fill-rule:evenodd;clip-rule:evenodd;fill:url(#SVGID_1_)"/><path d="M872.7 616.5h43c20 0 36.4-16.4 36.4-36.4s-16.4-36.4-36.4-36.4h-43v30.7h45.6c3.1 0 5.7 2.6 5.7 5.7s-2.6 5.7-5.7 5.7h-45.6v30.7z" class="st7"/><path d="M854.5 559.1c0 8.4 6.9 15.3 15.3 15.3h15.3v-30.7h-15.3c-8.4 0-15.3 6.9-15.3 15.4zM854.5 601.1c0 8.4 6.9 15.3 15.3 15.3h15.3v-30.7h-15.3c-8.4.1-15.3 7-15.3 15.4z" class="st7"/><path d="M1170.8 371.5H749.9c0-116.2 94.2-210.4 210.4-210.4s210.5 94.2 210.5 210.4z" class="st4"/><circle cx="960.4" cy="376.9" r="52" style="fill-rule:evenodd;clip-rule:evenodd;fill:#f2f2f2"/><circle cx="960.4" cy="376.9" r="29" style="fill-rule:evenodd;clip-rule:evenodd;fill:#3cf"/><path d="M1079.3 537.7c2.5.5 5 .7 7.7.6 18.9-.4 34.6-15.7 35.5-34.6.5-10.4-3.4-19.9-10-26.8 14.3-10.7 23.5-27.7 23.5-46.8 0-31.7-25.2-57.5-56.7-58.4v166z" style="fill-rule:evenodd;clip-rule:evenodd;fill:#c6f"/><path d="M609.2 703.2h198.6c29.6 0 53.7-24.2 53.7-53.7 0-29.6-24.2-53.7-53.7-53.7H609.2c-29.5 0-53.7 24.2-53.7 53.7 0 29.6 24.2 53.7 53.7 53.7z" style="fill-rule:evenodd;clip-rule:evenodd;fill:#fc0"/><path d="M451.4 591.8h461.5c6.5 0 11.7-5.2 11.7-11.7 0-6.5-5.2-11.7-11.7-11.7H463c-6.5 0-11.7 5.2-11.7 11.7v11.7h.1zM620.9 676.9h175.2c15 0 27.4-12.4 27.4-27.4s-12.4-27.4-27.4-27.4H620.9c-15 0-27.4 12.4-27.4 27.4s12.4 27.4 27.4 27.4z" class="st12"/><path d="M656 566.8v-30.6h4.9v30.6z" class="st13"/><path d="M643.5 529.3c0-8.3 6.7-15 15-15s15 6.7 15 15-6.7 15-15 15-15-6.7-15-15z" class="st12"/><path d="M695.6 566.8v-30.6h4.9v30.6z" class="st13"/><path d="M683.1 529.3c0-8.3 6.7-15 15-15s14.9 6.7 14.9 15-6.7 15-14.9 15c-8.3 0-15-6.7-15-15z" class="st12"/><path d="M735.2 566.8v-30.6h4.9v30.6z" class="st13"/><path d="M722.7 529.3c0-8.3 6.7-15 15-15s14.9 6.7 14.9 15-6.7 15-14.9 15c-8.3 0-15-6.7-15-15z" class="st12"/><path d="M389.5 451.9c70.8 0 128.2 57.4 128.2 128.2s-57.4 128.2-128.2 128.2-128.2-57.4-128.2-128.2 57.4-128.2 128.2-128.2z" style="fill-rule:evenodd;clip-rule:evenodd;fill:#fc3"/><path d="M421.4 513.3c36.9 0 66.8 29.9 66.8 66.8s-29.9 66.8-66.8 66.8-66.8-29.9-66.8-66.8 29.9-66.8 66.8-66.8z" class="st12"/><path d="M849.5 846.5v-8.6c0-23.5 19.2-42.7 42.7-42.7h236c23.5 0 42.7 19.2 42.7 42.7v8.6c0 23.5-19.2 42.7-42.7 42.7h-236c-23.5-.1-42.7-19.3-42.7-42.7z" class="st5"/><path d="M885.8 924.8c-26.3 0-47.7-21.4-47.7-47.7v-75c0-26.3 21.4-47.7 47.7-47.7s47.7 21.4 47.7 47.7v75c0 26.3-21.4 47.7-47.7 47.7z" class="st15"/><path d="M885.8 774.3c7.3 0 14.3 2.9 19.6 8.2s8.2 12.2 8.2 19.6v75c0 7.3-2.9 14.3-8.2 19.6s-12.2 8.2-19.6 8.2-14.3-2.9-19.6-8.2-8.2-12.2-8.2-19.6v-75c0-7.3 2.9-14.3 8.2-19.6s12.3-8.2 19.6-8.2m0-40c-37.3 0-67.7 30.5-67.7 67.7v75c0 37.3 30.5 67.7 67.7 67.7s67.7-30.5 67.7-67.7v-75c0-37.2-30.5-67.7-67.7-67.7z" class="st16"/><path d="M913.5 858.4h-177L724 826.6h189.5z" class="st17"/><path d="M734.9 673.2c0-5.3 4.3-9.6 9.6-9.6s9.6 4.3 9.6 9.6v84.1c0 9.3 7.6 16.9 16.9 16.9 9.3 0 16.9-7.6 16.9-16.9v-38.2c0-5.3 4.3-9.6 9.6-9.6s9.6 4.3 9.6 9.6v67.2c0 39.6-32.4 72-72 72s-72-32.4-72-72V673.2c0-5.3 4.3-9.6 9.6-9.6s9.6 4.3 9.6 9.6V766c0 4.5 3.7 8.3 8.3 8.3 4.6 0 8.3-3.7 8.3-8.3v-92.8c0-5.3 4.3-9.6 9.6-9.6s9.6 4.3 9.6 9.6V766c0 4.5 3.7 8.3 8.3 8.3 4.5 0 8.3-3.7 8.3-8.3.2-22.3.2-70.6.2-92.8z" class="st17"/><path d="M517.6 1336h85.2c142.6 0 259.3 116.7 259.3 259.3v84.5H517.6V1336z" class="st18"/><path d="M416.6 1189.9v195.5c0 24.1-19.7 43.8-43.8 43.8h-3.7c-7.1 0-13-5.8-13-13 0-7.1 5.8-13 13-13h17.3c14.8 0 27-12.1 27-27v-186.3h3.2z" style="fill-rule:evenodd;clip-rule:evenodd;fill:#ff66ad"/><path d="m430.6 1204.7 34.1-59.1c25.5-44.3 80.8-61.3 126.4-40.6l-83.3 144.3-77.2-44.6z" class="st20"/><path d="m557.3 1123.7-40.5 70.2c-.8 1.5-2.7 2-4.2 1.1-1.5-.8-2-2.7-1.1-4.2l40.5-70.2c.8-1.5 2.7-2 4.2-1.1 1.4.8 1.9 2.7 1.1 4.2z" class="st21"/><path d="M395 1242.5v-68.3c0-51.1-39.3-93.5-89.1-98.4v166.7H395zM556.5 1241.2H431.2v96.8l8.2 8.2 10.7-10.7c.9-.9 2.3-.9 3.2 0l2.9 2.9 7.8 7.8 10.7-10.7c.9-.9 2.3-.9 3.2 0l2.9 2.9 7.8 7.8 10.7-10.7c.9-.9 2.3-.9 3.2 0 .9.9.9 2.3 0 3.2L490 1351c-.9.9-2.3.9-3.2 0l-10.7-10.7-10.7 10.7c-.9.9-2.3.9-3.2 0l-10.7-10.7L441 1351c-.9.9-2.3.9-3.2 0l-6.6-6.6v166.3h125.3v-269.5z" class="st18"/><path d="M431.2 1115.9c68.9 0 125.3 56.4 125.3 125.3v125.3H431.2v-22.1l6.6 6.6c.9.9 2.3.9 3.2 0l10.7-10.7 10.7 10.7c.9.9 2.3.9 3.2 0l10.7-10.7L487 1351c.9.9 2.3.9 3.2 0l12.3-12.3c.9-.9.9-2.3 0-3.2-.9-.9-2.3-.9-3.2 0l-10.7 10.7-7.8-7.8-2.9-2.9c-.9-.9-2.3-.9-3.2 0l-10.7 10.7-7.8-7.8-2.9-2.9c-.9-.9-2.3-.9-3.2 0l-10.7 10.7-10-10-.6-.6c-.1-.1-.2-.2-.3-.2-1.2-1-2.8-1.6-4.5-1.6-4 0-7.3 3.3-7.3 7.3v24.6c-62.1-7.3-110.8-60.5-110.8-124.5-.1-68.9 56.3-125.3 125.3-125.3z" class="st18"/><path d="M378.2 1178c29.1 0 53 23.8 53 53v53h-53c-29.1 0-53-23.8-53-53 0-29.1 23.9-53 53-53z" class="st20"/><path d="M493 1204.4c15.1 0 27.4 12.3 27.4 27.4s-12.3 27.4-27.4 27.4-27.4-12.3-27.4-27.4c0-15.2 12.3-27.4 27.4-27.4z" style="fill-rule:evenodd;clip-rule:evenodd;fill:#fc9"/><path d="M378.2 1199.2c17.6 0 31.8 14.3 31.8 31.8 0 17.6-14.3 31.8-31.8 31.8-17.6 0-31.8-14.3-31.8-31.8 0-17.6 14.2-31.8 31.8-31.8z" class="st15"/><path d="M265.4 1294.7h127c1.4 0 2.6 1.2 2.6 2.6 0 1.4-1.2 2.6-2.6 2.6h-127c-1.4 0-2.6-1.2-2.6-2.6 0-1.5 1.2-2.6 2.6-2.6zM269.1 1337.4l122.7-32.9c1.4-.4 2.8.4 3.1 1.8.4 1.4-.5 2.8-1.8 3.1l-122.7 32.9c-1.4.4-2.8-.4-3.1-1.8-.4-1.3.4-2.8 1.8-3.1zM281.5 1377.7l110-63.5c1.2-.7 2.8-.3 3.5.9.7 1.2.3 2.8-.9 3.5l-110 63.5c-1.2.7-2.8.3-3.5-.9-.7-1.3-.3-2.8.9-3.5z" class="st23"/><path d="M417.2 1265.2h27.9c10.3 0 18.8 8.5 18.8 18.8s-8.5 18.8-18.8 18.8h-27.9c-10.3 0-18.8-8.5-18.8-18.8 0-10.4 8.5-18.8 18.8-18.8z" class="st24"/><path d="M366.9 1219.7c1-1 2.5-1 3.5 0l19 19c1 1 1 2.5 0 3.5s-2.5 1-3.5 0l-19-19c-.9-.9-.9-2.5 0-3.5z" class="st23"/><path d="M463.9 1679.8h-94l70.2-270.9 23.8 88.3v63c-9.5 10.7-15.4 24.9-15.4 40.6 0 15.6 5.8 29.9 15.4 40.6v38.4z" class="st18"/><path d="M389.1 1679.8c-22.6-28 22.6-28 0 0z" class="st24"/><path d="M405.7 1679.8c-22.6-28 22.6-28 0 0z" class="st24"/><path d="M422.3 1679.8c-22.6-28 22.6-28 0 0z" class="st24"/><path d="M545.8 1287.1h10.7v5c0 24.2 19.8 43.9 43.9 43.9h4.7v4.1h-59.3v-53z" class="st18"/><path d="M493 1220.1c6.4 0 11.6 5.2 11.6 11.6s-5.2 11.6-11.6 11.6-11.6-5.2-11.6-11.6c0-6.4 5.2-11.6 11.6-11.6z" style="fill-rule:evenodd;clip-rule:evenodd;fill:#a60008"/><path d="M672 1679.8c35.9-26.6 59.1-69.3 59.1-117.4 0-80.7-65.4-146.2-146.2-146.2-80.7 0-146.2 65.4-146.2 146.2 0 48.1 23.2 90.8 59.1 117.4H672z" class="st21"/><path d="m573.6 1413.6 4.8-.3v136.3h-4.8v-136zM595.2 1413.6c1.6.1 3.2.2 4.8.4v129.6l-4.8 1.5v-131.5zM616.8 1416.6c1.6.3 3.2.7 4.7 1.1v118.8l-4.7 1.5v-121.4zM638.4 1423.1c1.6.6 3.2 1.3 4.7 1.9v104.5l-4.7 1.5v-107.9zM662.9 1433.5c1.6.9 3.2 1.9 4.8 2.9v86.2l-4.8 1.5v-90.6z" class="st26"/><path d="M446.1 1508.2c.6-1.5 1.2-3 1.8-4.4l127.2 41.3-1.5 4.5-127.5-41.4zM455.4 1488.6c.8-1.4 1.6-2.8 2.5-4.2l118.1 38.4v5l-120.6-39.2zM468 1469.9c1.1-1.3 2.1-2.6 3.2-3.9l104.8 34v5l-108-35.1zM484.1 1452.5c1.4-1.2 2.7-2.5 4.1-3.6l87.8 28.5v5l-91.9-29.9zM507.8 1436.5c1.8-1.1 3.5-2.2 5.3-3.3l65.8 21.4v5l-71.1-23.1zM535.3 1422.8c2.4-.9 4.9-1.8 7.4-2.6L579 1432v5l-43.7-14.2z" class="st26"/><path d="M484.7 1672.1c-1.2-1.1-2.3-2.2-3.5-3.3l88.6-121.9 3.8 2.8-88.9 122.4zM469.6 1656.1c-1-1.3-2-2.6-3.1-3.9l82.2-113.2 4.7 1.5-83.8 115.6zM456.5 1637.4c-.9-1.5-1.7-3-2.6-4.5l73.2-100.8 4.7 1.5-75.3 103.8zM445.9 1615.3c-.7-1.8-1.3-3.6-2-5.4l61.7-84.9 4.8 1.6-64.5 88.7zM438.5 1588.8c-.4-2.2-.7-4.4-1-6.6L484 1518l4.8 1.5-50.3 69.3zM436.2 1555.2c.1-3 .4-6 .7-9l25.6-35.2 4.8 1.5-31.1 42.7z" class="st26"/><path d="m662.3 1679.8-92.5-127.4 3.8-2.8 94.6 130.2zM635.7 1679.8 555.9 1570l2.9-4 82.7 113.8zM609 1679.8l-66.4-91.4 2.9-4.1 69.4 95.5zM582.3 1679.8l-53.1-73.1 3-4 56 77.1zM555.6 1679.8l-39.7-54.7 2.9-4.1 42.7 58.8zM529 1679.8l-26.4-36.4 2.9-4 29.3 40.4z" class="st26"/><path d="M721 1501.8c.6 1.5 1.3 2.9 1.9 4.4l-147.8 48-1.5-4.5 147.4-47.9zM728.3 1522.1c.4 1.5.8 3.1 1.2 4.6l-142 46.1-2.9-4 143.7-46.7zM732.5 1543.4c.2 1.6.4 3.2.5 4.8l-132.2 43-2.9-4 134.6-43.8zM733.7 1565.7c0 1.7-.1 3.4-.2 5.1l-119.2 38.7-2.9-4 122.3-39.8zM731.2 1589.2c-.3 1.8-.7 3.6-1.1 5.3l-102.6 33.3-2.9-4 106.6-34.6zM724.3 1614.1c-.7 1.9-1.5 3.8-2.3 5.7l-81.2 26.4-2.9-4 86.4-28.1z" class="st26"/><path d="M913.6 1435.9h34.7v171.3h-34.7zM879.7 1607.2h33.9v-33.9c0 18.7-15.3 33.9-33.9 33.9z" class="st27"/><path d="M1071.8 1551.2h-61.7c-5.7 0-10.3-4.6-10.3-10.3 0-5.7 4.6-10.3 10.3-10.3h61.7c5.7 0 10.3 4.6 10.3 10.3 0 5.7-4.7 10.3-10.3 10.3z" class="st28"/><path d="m1170.3 1627.4-39.9-23c-13.4-7.8-20.6-22.4-19.6-37h-38.6V1540h-62.5v140h62.5v-36.9c0-7.2 5.9-13.2 13.2-13.2s13.2 5.9 13.2 13.2v36.9h121.7v-24.5c0-11-2.1-21.6-5.8-31.3-12.4 9.6-29.9 11.5-44.2 3.2z" class="st28"/><path d="M726 1623h-25.4c-27.4 0-49.8 22.4-49.8 49.8H726V1623zM851.7 1566.5l2.8 7c1.5 3.9-.4 8.2-4.3 9.8l-39.1 15.4-5.5-14 46.1-18.2z" class="st29"/><path d="M953.7 1667.4H707.9V1623l134.3-52.8c.7 19.1 16.6 34.5 35.8 34.5h34.4c19.7 0 35.9-16.1 35.9-35.9v-.4h5.4v99z" style="fill-rule:evenodd;clip-rule:evenodd;fill:#81afde"/><path d="M953.7 1667.4h-58.8c0-32.5 26.4-59.1 58.8-59.6v59.6z" class="st29"/><path d="M807.4 1325.8c-39.2 0-71.1-31.9-71.1-71.1s31.9-71.1 71.1-71.1h345.4c39.2 0 71.1 31.9 71.1 71.1s-31.9 71.1-71.1 71.1H807.4z" class="st15"/><path d="M1152.8 1204.6c13.3 0 25.8 5.2 35.4 14.8 9.5 9.5 14.8 22.1 14.8 35.4s-5.2 25.8-14.8 35.4c-9.5 9.5-22.1 14.8-35.4 14.8H807.4c-13.3 0-25.8-5.2-35.4-14.8s-14.8-22.1-14.8-35.4 5.2-25.8 14.8-35.4c9.5-9.5 22.1-14.8 35.4-14.8h345.4m0-42H807.4c-50.7 0-92.1 41.4-92.1 92.1 0 50.7 41.4 92.1 92.1 92.1h345.4c50.7 0 92.1-41.4 92.1-92.1 0-50.6-41.5-92.1-92.1-92.1z" class="st16"/><path d="M854.7 1204.4h113.1v237.8h-77.4v-174.8c0-25.4-14-48.2-35.7-63zM1115.8 1204.4h-113.1v237.8h77.4v-174.8c0-25.4 14-48.2 35.7-63z" class="st31"/><path d="M1074.7 1680h-69.1c-4.5 0-8.2-3.7-8.2-8.2 0-4.5 3.7-8.2 8.2-8.2h69.1c4.5 0 8.2 3.7 8.2 8.2 0 4.5-3.7 8.2-8.2 8.2zM1223.8 1680h-128.3c-4.5 0-8.2-3.7-8.2-8.2 0-4.5 3.7-8.2 8.2-8.2h128.3c4.5 0 8.2 3.7 8.2 8.2 0 4.5-3.7 8.2-8.2 8.2z" class="st32"/><path d="M1180.1 1615.8a3.32 3.32 0 0 1 0-4.7l15.9-15.9c-2.3-2.4-4.6-4.7-7.2-6.8l-15.8 15.8a3.32 3.32 0 0 1-4.7 0 3.32 3.32 0 0 1 0-4.7l15.2-15.2c-2.7-2-5.6-3.8-8.5-5.5l-13.7 13.7a3.32 3.32 0 0 1-4.7 0 3.32 3.32 0 0 1 0-4.7l12.2-12.2c-11.3-5.3-23.8-8.2-36.9-8.2h-21.3c-1 14.6 6.1 29.2 19.6 37l39.9 23c14.3 8.3 31.8 6.4 44.1-3.2-3.4-8.8-8.1-16.9-14-24l-15.6 15.6c-1.1 1.3-3.2 1.3-4.5 0z" style="fill:#f7931e"/><path d="M1156.9 1592.5c1.3 1.3 3.4 1.3 4.7 0l13.7-13.7c-2-1.1-4.1-2.2-6.1-3.2l-12.2 12.2c-1.4 1.3-1.4 3.4-.1 4.7zM1168.5 1604.1c1.3 1.3 3.4 1.3 4.7 0l15.8-15.8c-1.7-1.4-3.4-2.8-5.2-4.1l-15.2 15.2c-1.4 1.4-1.4 3.5-.1 4.7zM1180.1 1611.1a3.32 3.32 0 0 0 0 4.7c1.3 1.3 3.4 1.3 4.7 0l15.6-15.6c-1.4-1.7-2.8-3.4-4.3-5l-16 15.9z" class="st34"/><path d="M955.4 1680H649.5c-4.5 0-8.2-3.7-8.2-8.2 0-4.5 3.7-8.2 8.2-8.2h305.9c4.5 0 8.2 3.7 8.2 8.2 0 4.5-3.7 8.2-8.2 8.2z" class="st13"/><circle cx="771.2" cy="1618.2" r="8.2" class="st35"/><circle cx="797.5" cy="1608.4" r="8.2" class="st35"/><circle cx="744.9" cy="1628.1" r="8.2" class="st35"/><path d="M1019.6 1456.4h39.5v13h-39.5zM1019.6 1479.4h39.5v13h-39.5zM1019.6 1502.5h39.5v13h-39.5z" class="st36"/></svg>