<svg xmlns="http://www.w3.org/2000/svg" xmlns:xlink="http://www.w3.org/1999/xlink" xml:space="preserve" id="Layer_1" width="1440" height="840" x="0" y="0" style="enable-background:new 0 0 1440 840" version="1.1"><style>.st0{clip-path:url(#SVGID_11_)}.st0,.st1{fill-rule:evenodd;clip-rule:evenodd;fill:#8c6239}.st1,.st2,.st3{clip-path:url(#SVGID_24_)}.st2{fill:none;stroke:#ff7bac;stroke-width:12;stroke-linecap:round;stroke-miterlimit:10}.st3{fill-rule:evenodd;clip-rule:evenodd;fill:#f04c33}.st4{display:none;fill:#fc0}.st5{clip-path:url(#SVGID_24_);fill-rule:evenodd;clip-rule:evenodd;fill:#f15a24}.st6{clip-path:url(#SVGID_42_)}.st6,.st7,.st8,.st9{fill-rule:evenodd;clip-rule:evenodd}.st7{clip-path:url(#SVGID_11_);fill:#f2f2f2}.st8,.st9{clip-path:url(#SVGID_44_)}.st9{clip-path:url(#SVGID_46_)}.st10{clip-path:url(#SVGID_19_);fill:none;stroke:#ff7bac;stroke-width:12;stroke-linecap:round;stroke-miterlimit:10}.st11,.st12{fill-rule:evenodd;clip-rule:evenodd}.st11{clip-path:url(#SVGID_44_);fill:#eb707d}.st12{clip-path:url(#SVGID_48_)}.st13{display:none;fill:#609}.st14,.st15{clip-path:url(#SVGID_24_);fill-rule:evenodd;clip-rule:evenodd;fill:#f6e6db}.st15{clip-path:url(#SVGID_6_);fill:#90c}.st16,.st17,.st18,.st19,.st20,.st21{clip-path:url(#SVGID_11_);fill-rule:evenodd;clip-rule:evenodd;fill:#f7931e}.st17,.st18,.st19,.st20,.st21{clip-path:url(#SVGID_24_)}.st18,.st19,.st20,.st21{clip-path:url(#SVGID_29_);fill:#ed1c24}.st19,.st20,.st21{clip-path:url(#SVGID_42_);fill:#fff}.st20,.st21{clip-path:url(#SVGID_24_);fill:#93278f}.st21{clip-path:url(#SVGID_6_);fill:#c36}.st22,.st23,.st24,.st25,.st26,.st27{clip-path:url(#SVGID_11_);fill-rule:evenodd;clip-rule:evenodd;fill:#fbb03b}.st23,.st24,.st25,.st26,.st27{fill:#f39}.st24,.st25,.st26,.st27{fill:#ff3700}.st25,.st26,.st27{fill:#ff66ad}.st26,.st27{clip-path:url(#SVGID_24_);fill:#f60}.st27{fill:#ff7bac}.st28,.st29,.st30,.st31,.st32,.st33,.st34,.st35,.st36,.st37,.st39{clip-path:url(#SVGID_11_);fill-rule:evenodd;clip-rule:evenodd;fill:#ff9470}.st29,.st30,.st31,.st32,.st33,.st34,.st35,.st36,.st37,.st39{fill:#ffae00}.st30,.st31,.st32,.st33,.st34,.st35,.st36,.st37,.st39{fill:#ffc7ff}.st31,.st32,.st33,.st34,.st35,.st36,.st37,.st39{fill:#fc0}.st32,.st33,.st34,.st35,.st36,.st37,.st39{fill:#fc3}.st33,.st34,.st35,.st36,.st37,.st39{fill:#fc9}.st34,.st35,.st36,.st37,.st39{fill:#ffd9d9}.st35,.st36,.st37,.st39{clip-path:url(#SVGID_24_);fill:#fc0}.st36,.st37,.st39{clip-path:url(#SVGID_11_);fill:#fff}.st37,.st39{clip-path:url(#SVGID_24_)}.st39{clip-path:url(#SVGID_19_);fill:#93278f}.st40{clip-path:url(#SVGID_11_);fill:#d31900}.st41,.st42,.st43,.st44,.st45{clip-path:url(#SVGID_34_);fill-rule:evenodd;clip-rule:evenodd;fill:#963}.st42,.st43,.st44,.st45{clip-path:url(#SVGID_29_);fill:#f7931e}.st43,.st44,.st45{clip-path:url(#SVGID_34_);fill:#9c6}.st44,.st45{clip-path:url(#SVGID_11_);fill:#c30}.st45{fill:#c6f}.st46,.st47,.st48,.st49,.st50,.st51{clip-path:url(#SVGID_24_);fill-rule:evenodd;clip-rule:evenodd;fill:#c93}.st47,.st48,.st49,.st50,.st51{clip-path:url(#SVGID_11_);fill:#ccc}.st48,.st49,.st50,.st51{clip-path:url(#SVGID_19_);fill:#fbb03b}.st49,.st50,.st51{clip-path:url(#SVGID_34_);fill:#f06}.st50,.st51{fill:#f96}.st51{fill:#fc0}.st52{clip-path:url(#SVGID_15_);fill:#ff8133}.st53,.st54,.st55,.st56,.st57{clip-path:url(#SVGID_19_);fill-rule:evenodd;clip-rule:evenodd;fill:#f60}.st54,.st55,.st56,.st57{fill:#f63}.st55,.st56,.st57{fill:#ff7bac}.st56,.st57{fill:#f90}.st57{clip-path:url(#SVGID_11_);fill:#369}.st58,.st59,.st60,.st61,.st62,.st63,.st64{clip-path:url(#SVGID_19_);fill-rule:evenodd;clip-rule:evenodd;fill:#fc0}.st59,.st60,.st61,.st62,.st63,.st64{fill:#fc6}.st60,.st61,.st62,.st63,.st64{fill:#ffdb00}.st61,.st62,.st63,.st64{clip-path:url(#SVGID_11_);fill:#3cf}.st62,.st63,.st64{clip-path:url(#SVGID_44_);fill:#999}.st63,.st64{clip-path:url(#SVGID_34_);fill:#c63}.st64{clip-path:url(#SVGID_29_);fill:#fbb03b}.st65,.st66,.st67,.st68,.st69,.st70{clip-path:url(#SVGID_15_);fill-rule:evenodd;clip-rule:evenodd;fill:#820082}.st66,.st67,.st68,.st69,.st70{clip-path:url(#SVGID_44_);fill:#fc0}.st67,.st68,.st69,.st70{clip-path:url(#SVGID_24_);fill:#00abff}.st68,.st69,.st70{clip-path:url(#SVGID_29_);fill:#f06}.st69,.st70{fill:#ff7bac}.st70{fill:#fff}.st72{clip-path:url(#SVGID_4_)}.st73,.st74{clip-path:url(#SVGID_44_);fill-rule:evenodd;clip-rule:evenodd;fill:#666}.st74{fill:#333}.st75{clip-path:url(#SVGID_34_);fill:none;stroke:#f03;stroke-width:8;stroke-linecap:round;stroke-miterlimit:10}.st76{display:none;clip-path:url(#SVGID_15_);fill-rule:evenodd;clip-rule:evenodd;fill:#d4145a}.st77{fill:#fc0}.st78{fill:#fff}.st80,.st81{clip-path:url(#SVGID_11_);fill-rule:evenodd;clip-rule:evenodd;fill:#a60008}.st81{clip-path:url(#SVGID_24_);fill:#a67c52}.st82{clip-path:url(#SVGID_11_);fill:#e6e6e6}.st83{clip-path:url(#SVGID_29_);fill-rule:evenodd;clip-rule:evenodd;fill:#00abff}.st84{clip-path:url(#SVGID_21_);fill:url(#SVGID_22_)}.st85,.st86{clip-path:url(#SVGID_6_);fill-rule:evenodd;clip-rule:evenodd;fill:#e06c00}.st86{clip-path:url(#SVGID_48_);fill:#ec1e24}.st87{clip-path:url(#SVGID_19_);fill:#ff7bac}.st88{clip-path:url(#SVGID_11_);fill:#b3b3b3}.st89,.st90,.st91,.st92,.st93{clip-path:url(#SVGID_15_);fill-rule:evenodd;clip-rule:evenodd;fill:#f9aa8f}.st90,.st91,.st92,.st93{clip-path:url(#SVGID_46_);fill:#fff}.st91,.st92,.st93{clip-path:url(#SVGID_29_);fill:#d76367}.st92,.st93{clip-path:url(#SVGID_19_);fill:#a67c52}.st93{clip-path:url(#SVGID_11_);fill:#e06c00}.st100,.st101,.st94,.st95,.st96,.st97,.st98,.st99{clip-path:url(#SVGID_15_);fill-rule:evenodd;clip-rule:evenodd;fill:#c90007}.st100,.st101,.st95,.st96,.st97,.st98,.st99{fill:#ff0009}.st100,.st101,.st96,.st97,.st98,.st99{fill:#ff5900}.st100,.st101,.st97,.st98,.st99{fill:#f9f}.st100,.st101,.st98,.st99{clip-path:url(#SVGID_11_);fill:#e6e6e6}.st100,.st101,.st99{clip-path:url(#SVGID_15_);fill:#ffcb05}.st100,.st101{clip-path:url(#SVGID_46_);fill:#39f}.st101{clip-path:url(#SVGID_15_);fill:#fff}.st102{clip-path:url(#SVGID_31_);fill:url(#SVGID_32_)}.st103{clip-path:url(#SVGID_6_);fill:#ed1c24}.st103,.st104,.st105,.st106{fill-rule:evenodd;clip-rule:evenodd}.st104{clip-path:url(#SVGID_29_);fill:#404041}.st105,.st106{clip-path:url(#SVGID_11_)}.st106{clip-path:url(#SVGID_15_)}.st107,.st108{clip-path:url(#SVGID_11_)}.st107{fill-rule:evenodd;clip-rule:evenodd;fill:#81afde}.st108{fill:#f15a24}.st109{clip-path:url(#SVGID_15_);fill-rule:evenodd;clip-rule:evenodd;fill:#c06}.st110{clip-path:url(#SVGID_11_)}.st111{clip-path:url(#SVGID_13_)}.st112{clip-path:url(#SVGID_17_)}.st113{clip-path:url(#SVGID_36_)}.st114{clip-path:url(#SVGID_38_)}.st115{clip-path:url(#SVGID_40_)}.st116{clip-path:url(#SVGID_42_)}.st117{clip-path:url(#SVGID_8_);fill:url(#SVGID_9_)}.st118{clip-path:url(#SVGID_24_);fill:none;stroke:#000;stroke-width:12;stroke-linecap:round;stroke-miterlimit:10}.st119{clip-path:url(#SVGID_11_);fill:#f7931e}.st120,.st121{clip-path:url(#SVGID_24_);fill-rule:evenodd;clip-rule:evenodd}.st121{clip-path:url(#SVGID_44_);fill:#e13e4f}.st122{clip-path:url(#SVGID_11_);fill:#ed1c24}.st122,.st123,.st124{fill-rule:evenodd;clip-rule:evenodd}.st123{clip-path:url(#SVGID_24_);fill:#ed1c24}.st124{clip-path:url(#SVGID_29_)}.st125{clip-path:url(#SVGID_19_);fill:none;stroke:#000;stroke-width:10;stroke-linecap:round;stroke-miterlimit:10}.st126,.st127,.st128,.st129,.st130{clip-path:url(#SVGID_44_);fill-rule:evenodd;clip-rule:evenodd;fill:#e6e6e6}.st127,.st128,.st129,.st130{fill:#e6e7e8}.st128,.st129,.st130{clip-path:url(#SVGID_15_);fill:#6d6e70}.st129,.st130{clip-path:url(#SVGID_48_);fill:#fff}.st130{clip-path:url(#SVGID_15_);fill:#09f}.st131{clip-path:url(#SVGID_26_);fill:url(#SVGID_27_)}.st132{clip-path:url(#SVGID_34_);fill-rule:evenodd;clip-rule:evenodd}</style><defs><path id="SVGID_12_" d="M0 0h1440v840H0z"/></defs><clipPath id="SVGID_2_"><use xlink:href="#SVGID_12_" style="overflow:visible"/></clipPath><g style="clip-path:url(#SVGID_2_)"><defs><path id="SVGID_14_" d="M-283.4-532.1h1917.2v1917.2H-283.4z"/></defs><clipPath id="SVGID_4_"><use xlink:href="#SVGID_14_" style="overflow:visible"/></clipPath><path d="M730.4 606.2h528.2v237.5H730.4z" style="clip-path:url(#SVGID_4_);fill-rule:evenodd;clip-rule:evenodd;fill:#ff5900"/><path d="M645.6 286.1v387.6c0 32.5-26.6 59.1-59.1 59.1-22.5 0-42.2-12.8-52.2-31.4 15.8 56.8 57.4 103.1 111.3 125.3 1.3.6 2.7 1.1 4 1.6.1.1.3.1.4.2 1.2.5 2.5.9 3.7 1.4.2.1.3.1.5.2 1.3.5 2.6.9 4 1.4.1 0 .1 0 .2.1 4.3 1.4 8.6 2.7 13 3.8.2 0 .3.1.5.1 1.2.3 2.5.6 3.7.9.3.1.6.1.9.2 1.2.3 2.3.5 3.5.7.3.1.6.1.9.2 1.2.2 2.4.5 3.6.7.3 0 .5.1.8.1 2.9.5 5.9 1 8.9 1.3.3 0 .5.1.8.1 1.2.1 2.4.3 3.6.4.5 0 .9.1 1.4.1l3 .3c.5 0 1.1.1 1.6.1 1 .1 1.9.1 2.9.2.5 0 1.1.1 1.6.1 1 0 2 .1 3.1.1h1.4c1.5 0 3 .1 4.5.1s3.1 0 4.6-.1c.5 0 1 0 1.5-.1 1 0 2.1-.1 3.1-.1.6 0 1.2-.1 1.8-.1.9-.1 1.9-.1 2.8-.2.6 0 1.2-.1 1.9-.1.9-.1 1.8-.2 2.7-.2.6-.1 1.3-.1 1.9-.2l2.7-.3c.6-.1 1.2-.1 1.8-.2.9-.1 1.9-.3 2.8-.4.6-.1 1.1-.2 1.7-.2 1.1-.2 2.1-.3 3.2-.5.4-.1.8-.1 1.2-.2 1.5-.3 2.9-.5 4.4-.8.4-.1.8-.2 1.3-.3 1-.2 2.1-.4 3.1-.7.6-.1 1.1-.3 1.7-.4.9-.2 1.7-.4 2.6-.6.6-.2 1.2-.3 1.9-.5.8-.2 1.6-.4 2.4-.7.6-.2 1.3-.4 1.9-.5.8-.2 1.6-.5 2.4-.7.6-.2 1.3-.4 1.9-.6.8-.2 1.6-.5 2.3-.8.6-.2 1.3-.4 1.9-.6.8-.3 1.6-.6 2.4-.8l1.8-.6c.9-.3 1.9-.7 2.8-1.1.8-.3 1.6-.6 2.4-1 .9-.4 1.8-.7 2.8-1.1.6-.3 1.3-.5 1.9-.8l2.1-.9c.7-.3 1.3-.6 2-.9.6-.3 1.3-.6 1.9-.9.7-.3 1.4-.7 2-1l1.8-.9c.7-.3 1.4-.7 2.1-1.1l1.8-.9c.7-.4 1.4-.7 2.1-1.1.6-.3 1.1-.6 1.7-.9l2.1-1.2c.5-.3 1-.6 1.4-.8 2.8-1.6 5.5-3.4 8.2-5.1.3-.2.7-.5 1-.7.8-.5 1.5-1.1 2.3-1.6.4-.3.8-.6 1.2-.8.8-.5 1.5-1.1 2.2-1.6l1.2-.9c.7-.5 1.5-1.1 2.2-1.7.4-.3.8-.6 1.1-.9.8-.6 1.5-1.2 2.2-1.8.3-.3.7-.5 1-.8.8-.6 1.6-1.3 2.3-1.9.2-.2.5-.4.7-.6 3.9-3.3 7.6-6.7 11.2-10.2.1-.1.2-.1.2-.2.8-.8 1.6-1.6 2.4-2.5.2-.2.3-.4.5-.5.8-.8 1.6-1.6 2.3-2.4.2-.2.4-.4.5-.6.8-.8 1.5-1.7 2.3-2.5l.5-.5c.8-.9 1.6-1.8 2.3-2.7.1-.1.1-.2.2-.3 5.2-6.1 10-12.5 14.4-19.2l.1-.1 2.1-3.3.1-.2c18.3-29.2 28.9-63.7 28.9-100.5v-69.3l24.9-38.7 1.8-36.8L908.3 300l-262.7-13.9zM1367.3 741.3c-30 0-54.4-24.5-54.5-54.5l-.8-355.1-241.5 10.5v323.4c0 96.6 79 175.6 175.6 175.6 80.4 0 148.5-54.7 169.2-128.7-9.1 17.1-27.2 28.8-48 28.8" style="clip-path:url(#SVGID_4_);fill-rule:evenodd;clip-rule:evenodd;fill:#820082"/><path d="M1316.2 339.8c0 187.1-151.6 338.7-338.7 338.7S638.8 526.9 638.8 339.8 790.4 1.1 977.5 1.1s338.7 151.7 338.7 338.7" style="clip-path:url(#SVGID_4_);fill-rule:evenodd;clip-rule:evenodd;fill:#820082"/><path d="M906 512.3V648c0 45.3 37.1 82.4 82.4 82.4 45.4 0 82.3-37.1 82.4-82.4l.2-70.6-27.9-34.9-3.9-47.4 32.3-20.2h69.7V346.5l148.4.1-99.7-151.8c-4.6-7.7-9.7-14.8-15.6-21.6-28.1-32.6-69.6-53.3-115.7-53.3-84 0-152.7 68.7-152.7 152.7v239.7z" style="clip-path:url(#SVGID_4_);fill-rule:evenodd;clip-rule:evenodd;fill:#ffcb05"/><path d="M1114.4 446.6h-38.7c-36.5 0-66.4 29.9-66.4 66.4 0 36.5 29.9 66.4 66.4 66.4h38.7V524h-41.9c-6.1 0-11-5-11-11 0-6.1 5-11 11-11h41.9v-55.4z" style="clip-path:url(#SVGID_4_);fill-rule:evenodd;clip-rule:evenodd;fill:#ff0009"/><path d="M1114.4 446.6c-15.3 0-27.7 12.4-27.7 27.7 0 15.3 12.4 27.7 27.7 27.7 15.3 0 27.7-12.4 27.7-27.7 0-15.3-12.4-27.7-27.7-27.7M1114.4 524c-15.3 0-27.7 12.4-27.7 27.7 0 15.3 12.4 27.7 27.7 27.7 15.3 0 27.7-12.4 27.7-27.7 0-15.3-12.4-27.7-27.7-27.7" style="clip-path:url(#SVGID_4_);fill-rule:evenodd;clip-rule:evenodd;fill:#c06"/><path d="M999.7 203.3h14.4v195.6h-14.4z" style="clip-path:url(#SVGID_4_);fill-rule:evenodd;clip-rule:evenodd;fill:#6d6e70"/><path d="M878.1 230.9c-52.1 0-94.8 42.7-94.8 94.8v67c0 52.1 42.7 94.8 94.8 94.8 52.1 0 94.8-42.7 94.8-94.8v-67c0-52.1-42.7-94.8-94.8-94.8" style="clip-path:url(#SVGID_4_);fill-rule:evenodd;clip-rule:evenodd;fill:#ff0009"/><path d="M878.1 299.9c-17.6 0-32 14.4-32 32v67c0 17.6 14.4 32 32 32s32-14.4 32-32v-67c0-17.6-14.4-32-32-32" style="clip-path:url(#SVGID_4_);fill-rule:evenodd;clip-rule:evenodd;fill:#c90007"/><path d="M1082.7 225.9c-30.8 0-59.5 9.6-83 26v93.6c23.5 16.4 52.1 26 83 26 53.9 0 100.9-29.3 126.1-72.8-25.2-43.6-72.2-72.8-126.1-72.8" style="clip-path:url(#SVGID_4_);fill-rule:evenodd;clip-rule:evenodd;fill:#fff"/><path d="M1070.4 234.4c-35.5 0-64.3 28.8-64.3 64.3s28.8 64.3 64.3 64.3 64.3-28.8 64.3-64.3c0-35.6-28.8-64.3-64.3-64.3" style="clip-path:url(#SVGID_4_);fill-rule:evenodd;clip-rule:evenodd;fill:#09f"/><path d="M1070.4 330.7c-17.7 0-32.1-14.4-32.1-32.1 0-17.7 14.4-32.1 32.1-32.1 17.7 0 32.1 14.4 32.1 32.1 0 17.7-14.4 32.1-32.1 32.1" style="clip-path:url(#SVGID_4_);fill-rule:evenodd;clip-rule:evenodd"/><path d="M1072.9 501.8c-6.1 0-11 5-11 11 0 6.1 5 11 11 11h97.9c26.6 0 48.4 21.8 48.4 48.4v22.1c0 22.5 18.4 40.9 40.9 40.9s40.9-18.4 40.9-40.9v-12.8c0-43.8-35.9-79.7-79.7-79.7h-148.4z" style="clip-path:url(#SVGID_4_);fill-rule:evenodd;clip-rule:evenodd;fill:#f9aa8f"/><path d="M-191.4 42.3v683.3L910.1 392v-57.3z" style="clip-path:url(#SVGID_4_);fill:#ff8133"/><path d="m297.1 457.2-47.9-.1c-29.6-.1-53.7-24.3-53.7-53.9l.2-106c5-27.6 29.4-48.6 58.4-48.6l51.3.1c8.2 0 14.8 6.7 14.8 14.9s-6.7 14.8-14.9 14.8l-28.5-.1c-5.2 0-9.5 4.2-9.5 9.5 0 5.2 4.2 9.5 9.5 9.5h20.6l138.6.3c7.4 0 13.5 6.1 13.5 13.5s-6.1 13.5-13.5 13.5l-138.4-.3c-4.7 0-8.6 3.9-8.6 8.6 0 4.7 3.9 8.6 8.6 8.6l85.7.1c7.4 0 13.5 6.1 13.5 13.5s-6.1 13.5-13.5 13.5l-85.7-.1c-4.7 0-8.6 3.9-8.6 8.6 0 4.7 3.9 8.6 8.6 8.6l85.7.1c7.4 0 13.5 6.1 13.5 13.5s-6.1 13.5-13.5 13.5l-85.7-.1c-4.7 0-8.6 3.9-8.6 8.6 0 4.7 3.9 8.6 8.6 8.6l85.7.1c7.4 0 13.5 6.1 13.5 13.5s-6.1 13.5-13.5 13.5l-86.2.2z" style="clip-path:url(#SVGID_4_);fill-rule:evenodd;clip-rule:evenodd;fill:#f9f"/><path d="M313.6 263.7c0 5.2-4.3 9.5-9.5 9.4h-12.6c-5.2 0-9.4-4.3-9.4-9.5s4.3-9.4 9.5-9.4h12.6c5.2 0 9.4 4.3 9.4 9.5M443.6 311.3c0 4.2-3.5 7.7-7.7 7.7h-10.3c-4.2 0-7.7-3.5-7.7-7.7s3.5-7.7 7.7-7.7h10.3c4.2 0 7.7 3.5 7.7 7.7" style="clip-path:url(#SVGID_4_);fill-rule:evenodd;clip-rule:evenodd;fill:#fff"/></g><path d="M0 0h1440v840H0z" style="fill:none"/></svg>